<?xml version="1.0" standalone="no"?>
<!DOCTYPE svg PUBLIC "-//W3C//DTD SVG 20010904//EN"
 "http://www.w3.org/TR/2001/REC-SVG-20010904/DTD/svg10.dtd">
<svg version="1.0" xmlns="http://www.w3.org/2000/svg"
 width="698.000000pt" height="656.000000pt" viewBox="0 0 698.000000 656.000000"
 preserveAspectRatio="xMidYMid meet">

<g transform="translate(0.000000,656.000000) scale(0.100000,-0.100000)"
fill="#000000" stroke="none">
<path d="M5556 4714 c-38 -9 -82 -22 -97 -30 -16 -8 -35 -14 -44 -14 -8 0 -15
-4 -15 -10 0 -5 -9 -10 -19 -10 -11 0 -23 -4 -26 -10 -10 -16 6 -12 76 16 124
51 311 67 435 39 70 -17 97 -13 48 6 -77 30 -249 36 -358 13z"/>
<path d="M6000 4660 c0 -6 7 -10 15 -10 8 0 15 2 15 4 0 2 -7 6 -15 10 -8 3
-15 1 -15 -4z"/>
<path d="M1225 4609 c-22 -11 -58 -62 -70 -99 -4 -14 -31 -48 -60 -75 -83 -80
-100 -121 -99 -240 0 -82 4 -109 23 -152 13 -29 27 -53 31 -53 9 0 20 36 20
69 0 27 8 26 100 -8 30 -11 80 -20 111 -21 68 0 90 -18 138 -114 26 -49 41
-106 67 -243 63 -331 100 -460 155 -540 46 -66 129 -153 226 -234 l81 -68 7
-88 c11 -150 34 -249 62 -266 17 -11 17 -71 -1 -106 -28 -53 -84 -62 -243 -36
l-93 15 -67 -32 c-73 -36 -98 -65 -46 -54 24 6 37 1 62 -19 17 -15 31 -33 31
-41 0 -17 5 -17 29 -2 15 9 25 9 46 0 37 -17 60 -15 105 8 71 36 210 57 210
31 0 -4 -9 -14 -20 -24 -27 -23 -26 -41 3 -32 30 9 76 7 114 -7 27 -10 39 -8
91 15 36 17 77 27 103 27 l44 -1 -40 -21 c-46 -24 -55 -34 -55 -64 0 -18 8
-23 46 -29 42 -6 49 -4 78 23 66 63 171 93 233 67 47 -20 59 -19 94 6 16 11
36 18 44 15 8 -3 15 0 15 7 0 7 -20 23 -45 35 -37 18 -55 21 -103 16 -56 -6
-60 -5 -95 26 -43 37 -45 48 -16 81 26 30 38 59 53 129 l11 55 45 -2 c46 -2
213 -26 305 -44 115 -22 122 -26 169 -93 62 -86 135 -152 182 -165 103 -27
132 -34 174 -38 42 -5 44 -4 30 12 -8 10 -27 26 -43 35 -15 9 -47 36 -71 58
-25 23 -52 42 -61 42 -9 0 -29 7 -45 15 -37 19 -135 105 -119 105 6 0 42 -9
79 -21 38 -11 81 -19 97 -17 25 3 28 6 27 41 -1 28 -16 59 -56 120 -31 45 -65
104 -77 131 -19 43 -104 173 -122 186 -4 3 -23 33 -43 67 l-36 62 -55 -6 c-63
-7 -107 8 -130 43 -19 29 -35 31 -35 4 0 -11 13 -29 30 -41 30 -23 59 -90 52
-121 -3 -16 -9 -15 -60 10 -31 16 -77 34 -102 42 -25 7 -49 17 -54 22 -17 14
-46 9 -46 -8 0 -11 -6 -14 -20 -10 -11 3 -30 9 -42 12 -13 4 -35 17 -50 30
-16 12 -38 26 -50 30 -13 3 -35 15 -50 26 -16 11 -39 21 -53 24 -51 9 -199 95
-261 152 -14 12 -27 22 -30 22 -3 0 -23 18 -44 39 -20 22 -49 43 -64 47 -14 3
-26 11 -26 18 0 14 -51 46 -74 46 -9 0 -16 7 -16 15 0 8 -4 15 -9 15 -5 0 -23
23 -40 50 -17 28 -35 50 -41 50 -14 0 -12 -39 5 -96 8 -27 15 -58 15 -68 0
-18 -1 -18 -23 3 -13 12 -30 34 -38 49 -8 15 -20 33 -26 40 -7 7 -15 25 -18
40 -13 63 -40 150 -57 185 -10 20 -19 58 -20 85 -1 26 -10 64 -20 84 -10 21
-18 47 -18 59 0 28 -57 104 -90 120 -14 6 -32 15 -40 20 -8 5 -26 14 -39 19
-40 17 -104 91 -139 158 -39 76 -45 159 -13 179 22 14 61 94 61 126 0 37 -44
56 -85 36z m1076 -2027 c21 -65 76 -166 103 -189 62 -54 0 -123 -111 -123 -24
0 -37 7 -53 31 -21 29 -24 30 -75 24 -47 -6 -54 -5 -64 13 -20 38 -13 59 26
79 28 13 46 34 70 78 17 33 35 74 39 90 15 66 43 65 65 -3z"/>
<path d="M5654 4584 c-184 -33 -360 -147 -597 -388 -90 -91 -192 -227 -216
-287 -5 -13 -18 -35 -28 -48 -27 -35 -120 -131 -127 -131 -3 0 -6 23 -6 50 0
38 -4 50 -15 50 -8 0 -15 -4 -15 -10 0 -5 -7 -10 -15 -10 -14 0 -14 -4 0 -31
12 -22 14 -43 10 -70 -7 -38 -11 -42 -78 -74 -40 -19 -84 -45 -99 -57 -15 -13
-55 -45 -90 -73 -87 -68 -210 -188 -268 -260 -90 -114 -140 -233 -107 -258 9
-7 18 -30 19 -52 l4 -40 31 65 c38 80 112 184 188 268 77 84 245 221 326 266
77 42 80 41 105 -45 35 -120 127 -256 229 -340 72 -60 309 -169 327 -151 19
19 28 128 17 207 -10 75 -19 94 -45 95 -27 0 -98 45 -147 93 -55 54 -114 154
-99 169 18 18 103 -30 179 -103 45 -42 67 -48 40 -9 -8 12 -13 30 -10 41 3 10
0 19 -6 19 -6 0 -11 9 -11 20 0 12 -30 50 -74 93 -40 39 -81 84 -90 98 -15 24
-15 27 3 43 20 18 31 18 130 2 19 -3 45 -13 57 -21 31 -20 61 -21 45 -1 -14
16 -157 87 -214 106 -45 14 -54 31 -37 68 36 81 182 268 261 334 183 155 253
198 365 228 89 24 137 25 217 4 86 -22 133 -49 200 -112 98 -95 141 -210 135
-362 -2 -44 -3 -80 -2 -80 1 0 12 9 25 20 22 20 24 20 30 3 4 -10 16 -28 28
-40 36 -38 22 -125 -35 -228 -134 -241 -576 -594 -659 -525 -13 11 -15 7 -15
-27 0 -22 -3 -61 -6 -87 l-7 -46 89 31 c138 49 226 104 379 236 207 179 358
383 413 557 22 71 21 254 -2 321 -42 123 -102 230 -167 296 -77 80 -120 108
-221 148 -66 26 -220 55 -263 50 -5 -1 -42 -7 -81 -15z m-1220 -1125 c-24 -27
-54 -43 -54 -29 0 5 5 10 10 10 6 0 19 9 30 20 27 27 38 26 14 -1z m516 -24
c15 -45 97 -135 169 -186 31 -21 72 -52 91 -69 l34 -30 -54 0 -54 0 -78 79
c-55 56 -86 97 -108 145 -16 37 -30 73 -30 81 0 28 18 15 30 -20z m-587 -29
c-12 -22 -203 -199 -208 -194 -3 3 36 45 86 94 49 49 96 94 102 101 16 17 30
16 20 -1z"/>
<path d="M1359 4544 c-30 -12 -38 -22 -42 -51 -15 -93 110 -147 165 -70 31 43
28 85 -8 114 -33 26 -64 28 -115 7z"/>
<path d="M1970 4313 c1 -5 7 -19 15 -33 10 -18 14 -20 15 -8 0 23 -11 48 -21
48 -5 0 -9 -3 -9 -7z"/>
<path d="M2011 4243 c-1 -22 22 -53 39 -53 5 0 7 7 4 15 -4 8 -9 15 -14 15 -4
0 -12 10 -18 23 l-11 22 0 -22z"/>
<path d="M4570 3790 c-8 -5 -10 -10 -5 -10 6 0 17 5 25 10 8 5 11 10 5 10 -5
0 -17 -5 -25 -10z"/>
<path d="M4520 3770 c-8 -5 -10 -10 -5 -10 6 0 17 5 25 10 8 5 11 10 5 10 -5
0 -17 -5 -25 -10z"/>
<path d="M5240 3660 c0 -12 7 -20 18 -20 9 -1 37 -26 62 -55 41 -51 60 -66 60
-47 0 9 -125 142 -134 142 -3 0 -6 -9 -6 -20z"/>
<path d="M5720 3360 c0 -5 5 -10 11 -10 5 0 7 5 4 10 -3 6 -8 10 -11 10 -2 0
-4 -4 -4 -10z"/>
<path d="M5626 3302 c-12 -20 -79 -44 -103 -37 -13 3 -23 4 -23 3 0 -2 6 -23
13 -47 l13 -43 27 31 c14 17 28 31 32 31 14 0 57 49 53 61 -3 10 -6 10 -12 1z"/>
<path d="M5480 2910 c0 -5 -15 -10 -32 -11 -30 0 -38 -8 -80 -72 -78 -118
-151 -207 -244 -297 -188 -181 -334 -283 -459 -320 -22 -6 -53 -16 -70 -22
-50 -16 -217 -22 -291 -9 -120 21 -231 78 -347 178 -92 79 -157 194 -181 322
-17 90 -30 106 -21 26 16 -145 56 -253 131 -361 146 -209 413 -323 670 -286
105 16 155 32 261 84 144 72 357 258 502 439 83 105 104 137 138 219 24 55 39
120 29 120 -3 0 -6 -4 -6 -10z"/>
<path d="M4156 2419 c10 -12 40 -32 66 -45 26 -13 49 -28 53 -34 3 -5 19 -10
36 -10 16 0 29 -4 29 -10 0 -5 19 -10 43 -9 l42 0 -67 23 c-37 13 -99 42 -138
65 -82 47 -91 50 -64 20z"/>
<path d="M4528 2323 c7 -3 16 -2 19 1 4 3 -2 6 -13 5 -11 0 -14 -3 -6 -6z"/>
</g>
</svg>
