<svg version="1.1" id="Layer_1" xmlns="http://www.w3.org/2000/svg" xmlns:xlink="http://www.w3.org/1999/xlink" x="0px" y="0px"
	 width="100%" viewBox="0 0 300 300" enable-background="new 0 0 300 300" xml:space="preserve">
<path fill="#30AD40" opacity="1.000000" stroke="none" 
	d="
M301.000000,125.000000 
	C301.000000,142.020889 301.000000,159.041794 300.766113,176.754257 
	C300.688171,178.630554 300.844086,179.815277 301.000000,181.000000 
	C301.000000,181.000000 301.000000,181.500000 300.618408,181.795258 
	C298.824951,186.197357 297.461578,190.321732 295.985138,194.405182 
	C294.903137,197.397797 293.690887,200.344055 292.501373,203.296738 
	C291.830200,204.962769 290.170288,206.845306 290.534668,208.208252 
	C292.195587,214.421204 285.004730,216.732956 284.811249,222.801071 
	C284.674133,227.101730 279.226746,231.291000 276.012512,235.423264 
	C269.774323,243.443130 263.861572,251.777222 256.992004,259.222717 
	C252.631378,263.948944 246.874207,267.426056 241.589310,271.250549 
	C234.219772,276.583618 227.246155,282.879730 219.122864,286.653992 
	C208.036362,291.805084 196.018738,294.946411 184.429550,299.032318 
	C183.503571,299.358765 182.804504,300.328949 182.000000,301.000000 
	C161.645767,301.000000 141.291550,301.000000 120.598724,300.612549 
	C111.324615,297.137573 102.356682,294.139191 93.473671,290.907349 
	C90.869850,289.959991 88.573654,288.193756 86.009392,287.101074 
	C84.453476,286.438019 82.653992,286.346527 80.971359,285.996552 
	C80.978775,285.994843 80.986504,285.988342 80.614136,285.986633 
	C78.894951,284.540985 77.784637,282.345001 76.145805,281.829590 
	C73.696564,281.059296 71.977158,280.232178 69.885101,278.354004 
	C63.557072,272.672821 56.077461,268.299286 49.476788,262.891174 
	C38.959702,254.274200 30.159269,244.111053 23.813274,231.957596 
	C23.410242,231.185730 22.113434,230.907883 21.623396,230.148071 
	C20.768507,228.822540 20.258127,227.279907 19.526415,225.868134 
	C19.016998,224.885284 18.449179,223.914627 17.772751,223.043045 
	C17.348742,222.496735 16.172579,222.125092 16.188465,221.707596 
	C16.440521,215.084290 10.179300,210.957596 9.846832,204.340775 
	C9.639992,200.224197 7.515802,196.141205 5.921829,192.175934 
	C4.519750,188.688065 2.658472,185.384796 0.999998,182.000000 
	C1.000000,182.000000 1.000000,181.500000 1.195509,180.992706 
	C1.260679,179.323624 1.130340,178.161804 1.000001,177.000000 
	C1.000000,159.979111 1.000000,142.958206 1.233807,125.245728 
	C1.311742,123.369423 1.155871,122.184715 1.000000,121.000000 
	C1.000000,121.000000 1.000000,120.500000 1.398832,120.218323 
	C2.537766,119.121147 3.683309,118.421638 3.954949,117.472122 
	C6.533924,108.457222 8.965851,99.400246 11.437243,90.354599 
	C13.081290,84.337151 17.551973,79.823624 19.983973,74.093666 
	C22.243454,68.770180 27.643856,64.876472 30.792337,59.812904 
	C36.782131,50.179760 44.578236,42.288059 53.319969,35.359200 
	C58.573524,31.195135 63.321320,26.215912 69.931099,23.818707 
	C72.941452,22.726925 75.528069,20.516027 78.409744,19.009489 
	C83.663612,16.262777 88.976028,13.625459 94.307060,11.030963 
	C95.456459,10.471579 96.806992,10.341413 98.032654,9.919853 
	C101.783279,8.629854 105.515190,7.285613 109.260071,5.978781 
	C113.125946,4.629728 116.998489,3.299802 121.210365,1.962905 
	C122.368408,1.642867 123.184204,1.321433 124.000000,1.000000 
	C141.687561,1.000000 159.375122,1.000000 177.784546,1.224623 
	C179.381561,1.619992 180.256699,1.790737 181.449158,2.157317 
	C182.474808,2.896986 183.103897,3.702002 183.903610,3.944631 
	C192.818665,6.649437 202.223602,8.270080 210.580383,12.154055 
	C221.731079,17.336548 232.525116,23.611143 242.612717,30.648827 
	C250.072403,35.853111 256.626923,42.607655 262.723083,49.440296 
	C268.471649,55.883362 273.284729,63.201824 278.153290,70.376762 
	C282.302399,76.491364 286.171173,82.826500 289.702972,89.314995 
	C291.147583,91.968979 291.170227,95.358757 292.223877,98.275024 
	C293.189697,100.948219 294.958740,103.338181 295.864105,106.024727 
	C297.422302,110.648636 298.584381,115.406021 299.948364,120.480446 
	C300.322693,122.235672 300.661346,123.617836 301.000000,125.000000 
M176.509842,23.008160 
	C172.331253,22.009525 168.145859,20.140673 163.975311,20.173218 
	C150.749680,20.276428 137.386948,18.439518 124.380920,22.952967 
	C118.703033,24.923351 112.413437,25.170752 106.793098,27.255821 
	C101.411194,29.252441 96.740311,33.122940 91.396034,35.272694 
	C80.799103,39.535351 71.937523,46.250652 63.754639,53.889915 
	C57.948105,59.310703 52.525600,65.193878 47.370499,71.244537 
	C43.560795,75.716080 40.007156,80.539803 37.163692,85.664017 
	C34.132980,91.125664 32.880608,97.677368 29.406818,102.766884 
	C23.487616,111.439217 23.406261,121.711761 21.539053,131.075134 
	C18.586069,145.883255 17.974976,161.377441 22.937572,176.385132 
	C25.516556,184.184387 25.641665,192.464645 29.659433,200.183975 
	C35.283482,210.989471 39.852913,222.288345 48.042713,231.570099 
	C60.094883,245.229233 72.280945,258.652710 89.558540,266.100006 
	C95.839417,268.807312 101.724556,272.420532 107.928360,275.325500 
	C110.088112,276.336792 112.654594,276.507019 115.052200,276.974854 
	C117.307220,277.414917 119.613319,277.618103 121.846138,278.142059 
	C126.998734,279.351105 132.067139,281.485626 137.264450,281.834961 
	C155.385040,283.052887 173.353088,281.747375 190.884766,276.551971 
	C192.130859,276.182709 193.495422,275.842621 194.498978,275.084167 
	C202.425888,269.093384 213.238251,268.681122 220.501846,261.125214 
	C223.898972,257.591339 228.904633,255.664612 232.862976,252.598557 
	C247.580887,241.198303 259.210724,227.036926 267.772949,210.626373 
	C271.685913,203.126755 274.101349,194.772034 276.574310,186.616623 
	C278.817444,179.219299 281.527618,171.595047 281.694855,164.019257 
	C281.978363,151.175079 283.731628,138.154327 279.150818,125.417023 
	C276.213104,117.248459 276.581421,108.157494 271.399231,100.411392 
	C267.365112,94.381310 265.304382,87.052971 261.432312,80.888466 
	C248.843048,60.845783 231.152740,46.050808 211.003708,34.141518 
	C205.318375,30.781141 198.888489,28.668837 192.759995,26.078978 
	C191.423569,25.514215 189.927353,25.292805 188.484329,25.021900 
	C184.785782,24.327551 181.075745,23.694305 176.509842,23.008160 
z"/>
<path fill="#000000" opacity="1.000000" stroke="none" 
	d="
M299.912720,120.107384 
	C298.584381,115.406021 297.422302,110.648636 295.864105,106.024727 
	C294.958740,103.338181 293.189697,100.948219 292.223877,98.275024 
	C291.170227,95.358757 291.147583,91.968979 289.702972,89.314995 
	C286.171173,82.826500 282.302399,76.491364 278.153290,70.376762 
	C273.284729,63.201824 268.471649,55.883362 262.723083,49.440296 
	C256.626923,42.607655 250.072403,35.853111 242.612717,30.648827 
	C232.525116,23.611143 221.731079,17.336548 210.580383,12.154055 
	C202.223602,8.270080 192.818665,6.649437 183.903610,3.944631 
	C183.103897,3.702002 182.474808,2.896986 181.386337,1.921017 
	C181.006195,1.488881 181.000000,1.000000 181.000000,1.000000 
	C220.926651,1.000000 260.853302,1.000000 301.000000,1.000000 
	C301.000000,40.353954 301.000000,79.708321 300.723328,119.508987 
	C300.268677,120.005997 300.090698,120.056686 299.912720,120.107384 
z"/>
<path fill="#000000" opacity="1.000000" stroke="none" 
	d="
M120.868118,1.961509 
	C116.998489,3.299802 113.125946,4.629728 109.260071,5.978781 
	C105.515190,7.285613 101.783279,8.629854 98.032654,9.919853 
	C96.806992,10.341413 95.456459,10.471579 94.307060,11.030963 
	C88.976028,13.625459 83.663612,16.262777 78.409744,19.009489 
	C75.528069,20.516027 72.941452,22.726925 69.931099,23.818707 
	C63.321320,26.215912 58.573524,31.195135 53.319969,35.359200 
	C44.578236,42.288059 36.782131,50.179760 30.792337,59.812904 
	C27.643856,64.876472 22.243454,68.770180 19.983973,74.093666 
	C17.551973,79.823624 13.081290,84.337151 11.437243,90.354599 
	C8.965851,99.400246 6.533924,108.457222 3.954949,117.472122 
	C3.683309,118.421638 2.537766,119.121147 1.398832,119.968323 
	C1.000000,80.406059 1.000000,40.812126 1.000000,1.000000 
	C40.687294,1.000000 80.374992,1.000000 120.528206,1.244469 
	C120.993729,1.488938 120.868118,1.961508 120.868118,1.961509 
z"/>
<path fill="#000000" opacity="1.000000" stroke="none" 
	d="
M80.963936,285.998260 
	C82.653992,286.346527 84.453476,286.438019 86.009392,287.101074 
	C88.573654,288.193756 90.869850,289.959991 93.473671,290.907349 
	C102.356682,294.139191 111.324615,297.137573 120.130066,300.612549 
	C80.406372,301.000000 40.812740,301.000000 1.000000,301.000000 
	C1.000000,261.646057 1.000000,222.291687 0.999998,182.468658 
	C2.658472,185.384796 4.519750,188.688065 5.921829,192.175934 
	C7.515802,196.141205 9.639992,200.224197 9.846832,204.340775 
	C10.179300,210.957596 16.440521,215.084290 16.188465,221.707596 
	C16.172579,222.125092 17.348742,222.496735 17.772751,223.043045 
	C18.449179,223.914627 19.016998,224.885284 19.526415,225.868134 
	C20.258127,227.279907 20.768507,228.822540 21.623396,230.148071 
	C22.113434,230.907883 23.410242,231.185730 23.813274,231.957596 
	C30.159269,244.111053 38.959702,254.274200 49.476788,262.891174 
	C56.077461,268.299286 63.557072,272.672821 69.885101,278.354004 
	C71.977158,280.232178 73.696564,281.059296 76.145805,281.829590 
	C77.784637,282.345001 78.894951,284.540985 80.667587,285.971069 
	C81.093422,285.957153 80.963936,285.998260 80.963936,285.998260 
M83.572533,287.518250 
	C83.572533,287.518250 83.481941,287.568848 83.572533,287.518250 
z"/>
<path fill="#000000" opacity="1.000000" stroke="none" 
	d="
M182.468658,301.000000 
	C182.804504,300.328949 183.503571,299.358765 184.429550,299.032318 
	C196.018738,294.946411 208.036362,291.805084 219.122864,286.653992 
	C227.246155,282.879730 234.219772,276.583618 241.589310,271.250549 
	C246.874207,267.426056 252.631378,263.948944 256.992004,259.222717 
	C263.861572,251.777222 269.774323,243.443130 276.012512,235.423264 
	C279.226746,231.291000 284.674133,227.101730 284.811249,222.801071 
	C285.004730,216.732956 292.195587,214.421204 290.534668,208.208252 
	C290.170288,206.845306 291.830200,204.962769 292.501373,203.296738 
	C293.690887,200.344055 294.903137,197.397797 295.985138,194.405182 
	C297.461578,190.321732 298.824951,186.197357 300.618408,182.045258 
	C301.000000,221.593628 301.000000,261.187256 301.000000,301.000000 
	C261.646057,301.000000 222.291687,301.000000 182.468658,301.000000 
z"/>
<path fill="#2BAA2B" opacity="1.000000" stroke="none" 
	d="
M299.948364,120.480446 
	C300.090698,120.056686 300.268677,120.005997 300.723328,119.977646 
	C301.000000,121.388893 301.000000,122.777779 301.000000,124.583336 
	C300.661346,123.617836 300.322693,122.235672 299.948364,120.480446 
z"/>
<path fill="#2BAA2B" opacity="1.000000" stroke="none" 
	d="
M301.000000,180.600006 
	C300.844086,179.815277 300.688171,178.630554 300.766113,177.222916 
	C301.000000,178.066666 301.000000,179.133347 301.000000,180.600006 
z"/>
<path fill="#2BAA2B" opacity="1.000000" stroke="none" 
	d="
M1.000001,177.399994 
	C1.130340,178.161804 1.260679,179.323624 1.195509,180.742706 
	C1.000000,179.933334 1.000000,178.866653 1.000001,177.399994 
z"/>
<path fill="#2BAA2B" opacity="1.000000" stroke="none" 
	d="
M1.000000,121.399994 
	C1.155871,122.184715 1.311742,123.369423 1.233807,124.777069 
	C1.000000,123.933327 1.000000,122.866661 1.000000,121.399994 
z"/>
<path fill="#2BB847" opacity="1.000000" stroke="none" 
	d="
M180.625000,1.000000 
	C181.000000,1.000000 181.006195,1.488881 181.069031,1.725181 
	C180.256699,1.790737 179.381561,1.619992 178.253204,1.224623 
	C178.750000,1.000000 179.500000,1.000000 180.625000,1.000000 
z"/>
<path fill="#2BB847" opacity="1.000000" stroke="none" 
	d="
M121.210365,1.962905 
	C120.868118,1.961508 120.993729,1.488938 120.996864,1.244469 
	C121.750000,1.000000 122.500000,1.000000 123.625000,1.000000 
	C123.184204,1.321433 122.368408,1.642867 121.210365,1.962905 
z"/>
<path fill="#000000" opacity="1.000000" stroke="none" 
	d="
M176.940063,23.022394 
	C181.075745,23.694305 184.785782,24.327551 188.484329,25.021900 
	C189.927353,25.292805 191.423569,25.514215 192.759995,26.078978 
	C198.888489,28.668837 205.318375,30.781141 211.003708,34.141518 
	C231.152740,46.050808 248.843048,60.845783 261.432312,80.888466 
	C265.304382,87.052971 267.365112,94.381310 271.399231,100.411392 
	C276.581421,108.157494 276.213104,117.248459 279.150818,125.417023 
	C283.731628,138.154327 281.978363,151.175079 281.694855,164.019257 
	C281.527618,171.595047 278.817444,179.219299 276.574310,186.616623 
	C274.101349,194.772034 271.685913,203.126755 267.772949,210.626373 
	C259.210724,227.036926 247.580887,241.198303 232.862976,252.598557 
	C228.904633,255.664612 223.898972,257.591339 220.501846,261.125214 
	C213.238251,268.681122 202.425888,269.093384 194.498978,275.084167 
	C193.495422,275.842621 192.130859,276.182709 190.884766,276.551971 
	C173.353088,281.747375 155.385040,283.052887 137.264450,281.834961 
	C132.067139,281.485626 126.998734,279.351105 121.846138,278.142059 
	C119.613319,277.618103 117.307220,277.414917 115.052200,276.974854 
	C112.654594,276.507019 110.088112,276.336792 107.928360,275.325500 
	C101.724556,272.420532 95.839417,268.807312 89.558540,266.100006 
	C72.280945,258.652710 60.094883,245.229233 48.042713,231.570099 
	C39.852913,222.288345 35.283482,210.989471 29.659433,200.183975 
	C25.641665,192.464645 25.516556,184.184387 22.937572,176.385132 
	C17.974976,161.377441 18.586069,145.883255 21.539053,131.075134 
	C23.406261,121.711761 23.487616,111.439217 29.406818,102.766884 
	C32.880608,97.677368 34.132980,91.125664 37.163692,85.664017 
	C40.007156,80.539803 43.560795,75.716080 47.370499,71.244537 
	C52.525600,65.193878 57.948105,59.310703 63.754639,53.889915 
	C71.937523,46.250652 80.799103,39.535351 91.396034,35.272694 
	C96.740311,33.122940 101.411194,29.252441 106.793098,27.255821 
	C112.413437,25.170752 118.703033,24.923351 124.380920,22.952967 
	C137.386948,18.439518 150.749680,20.276428 163.975311,20.173218 
	C168.145859,20.140673 172.331253,22.009525 176.940063,23.022394 
M138.708786,193.744659 
	C147.042999,184.631271 155.377213,175.517868 163.745575,166.269012 
	C163.803238,166.068695 163.805634,165.866867 163.394196,165.038834 
	C165.004684,162.647491 166.615158,160.256134 168.445908,157.673996 
	C168.561691,157.370544 168.677475,157.067093 168.390671,155.982285 
	C169.600739,151.949219 170.810791,147.916153 172.482864,144.046982 
	C174.148209,143.156586 175.881409,142.371613 177.464127,141.352844 
	C180.349335,139.495667 182.993881,137.211761 186.011963,135.625656 
	C191.283524,132.855255 196.746826,130.445618 202.163757,127.958809 
	C203.605133,127.297104 205.367157,127.195923 206.641342,126.333893 
	C210.441086,123.763206 213.946793,120.749092 217.796524,118.263062 
	C224.148102,114.161423 230.884399,110.632576 237.080688,106.319489 
	C244.177841,101.379326 244.468918,87.847633 237.999390,82.000305 
	C237.999390,82.000305 238.001663,82.001984 238.033966,81.508469 
	C237.684113,81.290894 237.334259,81.073318 236.347092,80.931778 
	C235.328598,80.285904 234.390854,79.349686 233.278748,79.040352 
	C224.816727,76.686600 217.774368,80.730934 211.516922,85.214584 
	C200.216766,93.311493 189.490021,102.216377 178.627136,110.912926 
	C172.009613,116.210770 165.585342,121.750015 158.245102,127.078888 
	C157.323257,127.384583 156.422791,127.814575 155.476364,127.977287 
	C141.695877,130.346558 127.932640,132.831467 114.115196,134.964294 
	C106.053337,136.208694 98.624924,139.635605 90.798523,141.666336 
	C81.808815,143.998917 73.793076,150.217102 65.473900,154.957428 
	C59.522182,158.348755 58.720852,160.859406 62.076790,165.944077 
	C67.141365,173.617538 72.495148,181.101120 77.785774,188.623383 
	C78.686989,189.904724 80.200066,190.820847 80.873825,192.181366 
	C81.824638,194.101318 81.859779,196.529449 82.981087,198.300491 
	C87.188133,204.945282 91.850960,211.304016 95.987221,217.990051 
	C98.038391,221.305649 100.770844,222.667252 103.885017,220.520187 
	C107.610519,217.951630 111.131752,215.086807 115.148094,212.361847 
	C115.436707,212.243393 115.575706,212.028244 115.978607,211.387451 
	C116.255432,211.169632 116.532257,210.951797 117.597794,210.815033 
	C118.435814,209.912109 119.273842,209.009186 120.437088,207.758820 
	C120.657379,207.526367 120.908340,207.333908 121.947800,207.161072 
	C123.015541,206.900558 124.385597,206.973709 125.101631,206.324982 
	C129.519150,202.322815 133.789291,198.157928 138.708786,193.744659 
M234.650604,206.993927 
	C236.438538,206.665833 238.419540,205.684662 239.974609,206.144333 
	C243.309113,207.130005 246.445618,208.812775 249.621124,210.299988 
	C251.948715,211.390076 254.611237,212.165298 254.244354,215.781784 
	C254.196869,216.249634 257.605591,217.589844 257.677216,217.471863 
	C259.561188,214.368927 261.563477,211.236359 262.639008,207.823227 
	C262.875183,207.073746 259.673004,205.246216 258.062561,203.905106 
	C257.709351,203.610992 257.391632,203.274185 256.797852,202.710464 
	C260.569977,198.094254 256.268250,194.932587 254.350616,191.683456 
	C251.900787,187.532608 247.244751,185.868851 242.742355,187.199493 
	C239.990158,188.012863 237.574310,190.736328 235.595520,193.095276 
	C234.471329,194.435455 235.094147,197.273193 233.945969,198.554565 
	C231.372269,201.426758 231.778000,204.063232 232.926407,207.522141 
	C225.693634,207.090485 221.922028,212.296585 219.715149,220.877045 
	C218.013245,220.757629 215.681091,219.915894 214.961792,220.651413 
	C209.502274,226.234024 204.057251,231.573807 196.299103,234.100586 
	C194.209366,234.781204 192.762054,237.434326 190.880264,238.764664 
	C190.806335,238.623901 190.757614,238.457138 190.649124,238.352066 
	C190.583359,238.288406 190.333466,238.284393 190.321732,238.314407 
	C189.971924,239.208603 189.641571,240.110428 189.078171,241.770767 
	C189.006927,244.161926 188.935684,246.553101 188.137970,248.943787 
	C186.023651,247.898239 183.909332,246.852692 181.795013,245.807159 
	C182.333038,245.642944 182.871048,245.478745 183.409058,245.314545 
	C183.817245,243.052109 185.037552,240.541855 184.440735,238.586136 
	C183.574615,235.747925 181.041779,233.847488 177.654938,235.246552 
	C175.226929,236.249527 172.954102,237.624039 170.594193,238.796844 
	C165.688126,241.235031 164.275742,247.061264 167.754837,251.155777 
	C168.854156,252.449600 170.393906,253.369186 171.963470,254.648651 
	C165.888229,258.444183 171.150391,261.530060 171.750656,264.859711 
	C186.025223,265.433777 192.234848,259.982452 189.777420,250.293427 
	C190.847549,250.996887 192.216095,251.477036 192.937714,252.441315 
	C196.669922,257.428467 200.753510,258.127930 205.605743,254.238358 
	C207.943802,252.364182 210.084290,250.243484 212.750443,247.841461 
	C210.556900,246.306793 209.067978,245.265091 207.558838,244.209244 
	C205.446289,248.061859 203.227448,250.546265 199.374847,247.804016 
	C199.626724,247.690079 199.878601,247.576157 200.130493,247.462234 
	C199.945084,247.266510 199.759674,247.070786 199.574265,246.875076 
	C199.399475,247.257050 199.224670,247.639008 198.410095,247.734344 
	C197.614090,246.127121 196.818085,244.519897 195.944763,242.756592 
	C197.296265,241.923447 199.094666,240.247498 199.617416,240.579575 
	C205.369263,244.233566 204.003311,238.100906 205.935577,236.081207 
	C214.331177,235.536270 212.035614,244.390961 216.949402,248.500183 
	C219.639984,245.808685 222.667526,243.017029 225.295258,239.889465 
	C225.677933,239.434006 224.483551,236.882385 223.430603,236.168915 
	C221.765045,235.040283 219.602051,234.645706 217.735123,233.971420 
	C220.394608,230.002426 222.319183,227.130219 224.324280,224.137848 
	C225.255264,225.633270 226.175934,227.158646 227.142258,228.654541 
	C229.146820,231.757706 233.090118,232.809494 235.796478,230.491272 
	C239.231125,227.549271 242.388748,224.253860 245.415253,220.885681 
	C246.212387,219.998566 246.699005,217.963562 246.215958,217.033096 
	C245.706924,216.052582 243.904175,215.368774 242.601257,215.245224 
	C238.611267,214.866898 234.761185,211.377686 234.650604,206.993927 
M254.037430,167.142731 
	C253.032547,166.569595 251.988953,166.053955 251.032120,165.409485 
	C249.692856,164.507401 248.418228,163.509308 246.490967,162.093002 
	C244.779785,169.850555 243.269516,176.213562 242.008789,182.625656 
	C241.418015,185.630432 242.543289,186.017731 245.566071,185.140762 
	C250.697586,183.651978 256.049927,182.668411 261.369476,182.266266 
	C262.675110,182.167572 265.723236,185.691818 265.388824,186.601135 
	C263.708099,191.171509 266.844574,191.089615 269.686951,191.982254 
	C271.830505,188.526718 273.854675,185.251877 270.416626,181.581070 
	C267.687225,178.666855 264.939697,175.750763 261.986816,173.070618 
	C259.676300,170.973495 257.038605,169.236801 254.037430,167.142731 
M210.427460,35.481770 
	C210.427460,35.481770 210.518051,35.431149 210.427460,35.481770 
M208.572540,34.518230 
	C208.572540,34.518230 208.481949,34.568851 208.572540,34.518230 
M206.572540,33.518230 
	C206.572540,33.518230 206.481949,33.568851 206.572540,33.518230 
z"/>
<path fill="#30AD40" opacity="1.000000" stroke="none" 
	d="
M80.971359,285.996552 
	C80.963936,285.998260 81.093422,285.957153 81.039963,285.972748 
	C80.986504,285.988342 80.978775,285.994843 80.971359,285.996552 
z"/>
<path fill="#30AD40" opacity="1.000000" stroke="none" 
	d="
M83.527237,287.543549 
	C83.481941,287.568848 83.572533,287.518250 83.527237,287.543549 
z"/>
<path fill="#C5C7C6" opacity="1.000000" stroke="none" 
	d="
M114.741455,212.350311 
	C111.131752,215.086807 107.610519,217.951630 103.885017,220.520187 
	C100.770844,222.667252 98.038391,221.305649 95.987221,217.990051 
	C91.850960,211.304016 87.188133,204.945282 82.981087,198.300491 
	C81.859779,196.529449 81.824638,194.101318 80.873825,192.181366 
	C80.200066,190.820847 78.686989,189.904724 77.785774,188.623383 
	C72.495148,181.101120 67.141365,173.617538 62.076790,165.944077 
	C58.720852,160.859406 59.522182,158.348755 65.473900,154.957428 
	C73.793076,150.217102 81.808815,143.998917 90.798523,141.666336 
	C98.624924,139.635605 106.053337,136.208694 114.115196,134.964294 
	C127.932640,132.831467 141.695877,130.346558 155.476364,127.977287 
	C156.422791,127.814575 157.323257,127.384583 158.777466,127.429825 
	C162.487442,131.848221 165.665070,135.915680 168.885223,140.236328 
	C168.965286,140.656555 169.002792,140.823563 168.906921,141.343750 
	C164.479660,150.794617 161.067429,160.463135 155.648438,168.832321 
	C150.026352,177.515152 142.461227,184.939865 135.465057,193.078873 
	C130.519485,197.889099 125.854729,202.535278 121.189972,207.181458 
	C120.908340,207.333908 120.657379,207.526367 119.954422,207.929535 
	C118.584190,208.978149 117.696640,209.856064 116.809082,210.733963 
	C116.532257,210.951797 116.255432,211.169632 115.566193,211.542374 
	C114.855843,211.813675 114.718399,212.031342 114.741455,212.350311 
z"/>
<path fill="#AB6D46" opacity="1.000000" stroke="none" 
	d="
M168.842697,139.983139 
	C165.665070,135.915680 162.487442,131.848221 159.192047,127.480804 
	C165.585342,121.750015 172.009613,116.210770 178.627136,110.912926 
	C189.490021,102.216377 200.216766,93.311493 211.516922,85.214584 
	C217.774368,80.730934 224.816727,76.686600 233.278748,79.040352 
	C234.390854,79.349686 235.328598,80.285904 236.792831,81.120667 
	C237.492935,81.540359 237.747299,81.771172 238.001663,82.001984 
	C238.001663,82.001984 237.999390,82.000305 237.981079,82.399132 
	C241.733963,94.768051 240.062302,97.960785 229.099686,106.927795 
	C227.304688,108.396019 225.319382,109.676193 223.289932,110.805946 
	C209.917831,118.249947 196.542084,125.688820 183.095261,132.996338 
	C178.450500,135.520477 173.599487,137.665131 168.842697,139.983139 
M199.134689,106.175682 
	C200.389008,107.048866 201.557159,108.305832 202.937927,108.615829 
	C203.532028,108.749222 204.985947,107.022232 205.250641,105.944328 
	C205.420135,105.254089 203.939499,103.372009 203.528183,103.466019 
	C201.992340,103.817085 200.592514,104.763145 199.134689,106.175682 
M224.314789,94.150726 
	C225.060577,92.932175 225.806366,91.713623 226.552155,90.495064 
	C225.474854,89.890076 224.346069,88.739258 223.334778,88.834610 
	C222.336502,88.928734 221.457077,90.283287 220.525528,91.084892 
	C221.540268,92.134247 222.555008,93.183594 224.314789,94.150726 
M182.058441,117.736572 
	C180.696686,118.486053 179.334930,119.235535 177.973160,119.985008 
	C178.495895,120.906273 178.837402,122.366119 179.585449,122.617813 
	C180.610840,122.962837 182.804047,122.673019 182.973801,122.155617 
	C183.370163,120.947487 182.857880,119.441246 182.058441,117.736572 
z"/>
<path fill="#31AD41" opacity="1.000000" stroke="none" 
	d="
M191.019867,239.182022 
	C192.762054,237.434326 194.209366,234.781204 196.299103,234.100586 
	C204.057251,231.573807 209.502274,226.234024 214.961792,220.651413 
	C215.681091,219.915894 218.013245,220.757629 219.715149,220.877045 
	C221.922028,212.296585 225.693634,207.090485 233.283051,207.264282 
	C233.639679,207.006424 233.951691,207.011124 233.951691,207.011124 
	C234.761185,211.377686 238.611267,214.866898 242.601257,215.245224 
	C243.904175,215.368774 245.706924,216.052582 246.215958,217.033096 
	C246.699005,217.963562 246.212387,219.998566 245.415253,220.885681 
	C242.388748,224.253860 239.231125,227.549271 235.796478,230.491272 
	C233.090118,232.809494 229.146820,231.757706 227.142258,228.654541 
	C226.175934,227.158646 225.255264,225.633270 224.324280,224.137848 
	C222.319183,227.130219 220.394608,230.002426 217.735123,233.971420 
	C219.602051,234.645706 221.765045,235.040283 223.430603,236.168915 
	C224.483551,236.882385 225.677933,239.434006 225.295258,239.889465 
	C222.667526,243.017029 219.639984,245.808685 216.949402,248.500183 
	C212.035614,244.390961 214.331177,235.536270 205.935577,236.081207 
	C204.003311,238.100906 205.369263,244.233566 199.617416,240.579575 
	C199.094666,240.247498 197.296265,241.923447 195.944763,242.756592 
	C196.818085,244.519897 197.614090,246.127121 198.720947,247.853134 
	C199.031815,247.971924 198.982742,247.953995 198.982742,247.953995 
	C203.227448,250.546265 205.446289,248.061859 207.558838,244.209244 
	C209.067978,245.265091 210.556900,246.306793 212.750443,247.841461 
	C210.084290,250.243484 207.943802,252.364182 205.605743,254.238358 
	C200.753510,258.127930 196.669922,257.428467 192.937714,252.441315 
	C192.216095,251.477036 190.847549,250.996887 189.387756,250.040283 
	C188.978958,249.501892 188.934402,249.220932 188.864441,248.944260 
	C188.935684,246.553101 189.006927,244.161926 189.456741,241.321182 
	C190.230164,240.308395 190.625015,239.745209 191.019867,239.182022 
M233.869797,223.290405 
	C234.473267,223.131729 235.076736,222.973038 235.680206,222.814346 
	C235.502182,222.429733 235.324173,222.045105 235.146149,221.660492 
	C234.710144,222.029022 234.274139,222.397568 233.869797,223.290405 
M228.469391,223.495941 
	C228.469391,223.495941 228.514023,223.478012 228.469391,223.495941 
z"/>
<path fill="#31AE40" opacity="1.000000" stroke="none" 
	d="
M188.501205,248.944031 
	C188.934402,249.220932 188.978958,249.501892 189.018799,249.924225 
	C192.234848,259.982452 186.025223,265.433777 171.750656,264.859711 
	C171.150391,261.530060 165.888229,258.444183 171.963470,254.648651 
	C170.393906,253.369186 168.854156,252.449600 167.754837,251.155777 
	C164.275742,247.061264 165.688126,241.235031 170.594193,238.796844 
	C172.954102,237.624039 175.226929,236.249527 177.654938,235.246552 
	C181.041779,233.847488 183.574615,235.747925 184.440735,238.586136 
	C185.037552,240.541855 183.817245,243.052109 183.409058,245.314545 
	C182.871048,245.478745 182.333038,245.642944 181.795013,245.807159 
	C183.909332,246.852692 186.023651,247.898239 188.501205,248.944031 
M178.953049,257.540131 
	C178.944534,257.348206 178.936005,257.156250 178.590851,256.308136 
	C177.452011,256.503326 176.313187,256.698517 175.174347,256.893677 
	C175.299774,257.484070 175.453323,258.591309 175.546371,258.586273 
	C176.684937,258.524353 177.814636,258.299316 178.953049,257.540131 
z"/>
<path fill="#31AD40" opacity="1.000000" stroke="none" 
	d="
M234.301147,207.002533 
	C233.951691,207.011124 233.639679,207.006424 233.483673,207.004486 
	C231.778000,204.063232 231.372269,201.426758 233.945969,198.554565 
	C235.094147,197.273193 234.471329,194.435455 235.595520,193.095276 
	C237.574310,190.736328 239.990158,188.012863 242.742355,187.199493 
	C247.244751,185.868851 251.900787,187.532608 254.350616,191.683456 
	C256.268250,194.932587 260.569977,198.094254 256.797852,202.710464 
	C257.391632,203.274185 257.709351,203.610992 258.062561,203.905106 
	C259.673004,205.246216 262.875183,207.073746 262.639008,207.823227 
	C261.563477,211.236359 259.561188,214.368927 257.677216,217.471863 
	C257.605591,217.589844 254.196869,216.249634 254.244354,215.781784 
	C254.611237,212.165298 251.948715,211.390076 249.621124,210.299988 
	C246.445618,208.812775 243.309113,207.130005 239.974609,206.144333 
	C238.419540,205.684662 236.438538,206.665833 234.301147,207.002533 
M243.150330,199.078613 
	C245.000076,199.962585 246.849808,200.846558 248.715652,201.738220 
	C250.355408,197.522293 249.133865,195.308578 244.760925,194.441086 
	C243.800705,194.250610 241.822266,194.721573 241.811432,194.956985 
	C241.750473,196.279953 242.147903,197.624039 243.150330,199.078613 
z"/>
<path fill="#30AB3F" opacity="1.000000" stroke="none" 
	d="
M254.291855,167.241364 
	C257.038605,169.236801 259.676300,170.973495 261.986816,173.070618 
	C264.939697,175.750763 267.687225,178.666855 270.416626,181.581070 
	C273.854675,185.251877 271.830505,188.526718 269.686951,191.982254 
	C266.844574,191.089615 263.708099,191.171509 265.388824,186.601135 
	C265.723236,185.691818 262.675110,182.167572 261.369476,182.266266 
	C256.049927,182.668411 250.697586,183.651978 245.566071,185.140762 
	C242.543289,186.017731 241.418015,185.630432 242.008789,182.625656 
	C243.269516,176.213562 244.779785,169.850555 246.490967,162.093002 
	C248.418228,163.509308 249.692856,164.507401 251.032120,165.409485 
	C251.988953,166.053955 253.032547,166.569595 254.291855,167.241364 
z"/>
<path fill="#793F2A" opacity="1.000000" stroke="none" 
	d="
M168.885223,140.236328 
	C173.599487,137.665131 178.450500,135.520477 183.095261,132.996338 
	C196.542084,125.688820 209.917831,118.249947 223.289932,110.805946 
	C225.319382,109.676193 227.304688,108.396019 229.099686,106.927795 
	C240.062302,97.960785 241.733963,94.768051 237.980865,82.397659 
	C244.468918,87.847633 244.177841,101.379326 237.080688,106.319489 
	C230.884399,110.632576 224.148102,114.161423 217.796524,118.263062 
	C213.946793,120.749092 210.441086,123.763206 206.641342,126.333893 
	C205.367157,127.195923 203.605133,127.297104 202.163757,127.958809 
	C196.746826,130.445618 191.283524,132.855255 186.011963,135.625656 
	C182.993881,137.211761 180.349335,139.495667 177.464127,141.352844 
	C175.881409,142.371613 174.148209,143.156586 172.103882,143.703934 
	C170.830032,142.570770 169.935165,141.780670 169.040314,140.990555 
	C169.002792,140.823563 168.965286,140.656555 168.885223,140.236328 
z"/>
<path fill="#53555F" opacity="1.000000" stroke="none" 
	d="
M168.906921,141.343750 
	C169.935165,141.780670 170.830032,142.570770 171.872864,143.621979 
	C170.810791,147.916153 169.600739,151.949219 168.270416,156.189377 
	C167.855331,156.639969 167.560516,156.883469 167.265701,157.126968 
	C167.585678,157.372910 167.905655,157.618835 168.225632,157.864777 
	C166.615158,160.256134 165.004684,162.647491 163.226288,165.189117 
	C162.835754,165.672897 162.613144,166.006378 162.390533,166.339874 
	C162.830826,166.361404 163.271118,166.382935 163.711411,166.404480 
	C155.377213,175.517868 147.042999,184.631271 138.110733,193.759521 
	C136.923752,193.487854 136.334808,193.201340 135.745880,192.914825 
	C142.461227,184.939865 150.026352,177.515152 155.648438,168.832321 
	C161.067429,160.463135 164.479660,150.794617 168.906921,141.343750 
z"/>
<path fill="#5D5F68" opacity="1.000000" stroke="none" 
	d="
M135.465057,193.078873 
	C136.334808,193.201340 136.923752,193.487854 137.810547,193.910751 
	C133.789291,198.157928 129.519150,202.322815 125.101631,206.324982 
	C124.385597,206.973709 123.015541,206.900558 121.568886,207.171265 
	C125.854729,202.535278 130.519485,197.889099 135.465057,193.078873 
z"/>
<path fill="#5D5F68" opacity="1.000000" stroke="none" 
	d="
M117.203438,210.774506 
	C117.696640,209.856064 118.584190,208.978149 119.791809,208.103256 
	C119.273842,209.009186 118.435814,209.912109 117.203438,210.774506 
z"/>
<path fill="#2EA63C" opacity="1.000000" stroke="none" 
	d="
M190.950073,238.973343 
	C190.625015,239.745209 190.230164,240.308395 189.571732,240.941315 
	C189.641571,240.110428 189.971924,239.208603 190.321732,238.314407 
	C190.333466,238.284393 190.583359,238.288406 190.649124,238.352066 
	C190.757614,238.457138 190.806335,238.623901 190.950073,238.973343 
z"/>
<path fill="#000000" opacity="1.000000" stroke="none" 
	d="
M163.728485,166.336746 
	C163.271118,166.382935 162.830826,166.361404 162.390533,166.339874 
	C162.613144,166.006378 162.835754,165.672897 163.405548,165.501480 
	C163.805634,165.866867 163.803238,166.068695 163.728485,166.336746 
z"/>
<path fill="#000000" opacity="1.000000" stroke="none" 
	d="
M168.335770,157.769379 
	C167.905655,157.618835 167.585678,157.372910 167.265701,157.126968 
	C167.560516,156.883469 167.855331,156.639969 168.471710,156.580048 
	C168.677475,157.067093 168.561691,157.370544 168.335770,157.769379 
z"/>
<path fill="#2EA63C" opacity="1.000000" stroke="none" 
	d="
M199.040833,247.996460 
	C199.224670,247.639008 199.399475,247.257050 199.574265,246.875076 
	C199.759674,247.070786 199.945084,247.266510 200.130493,247.462234 
	C199.878601,247.576157 199.626724,247.690079 199.178802,247.878998 
	C198.982742,247.953995 199.031815,247.971924 199.040833,247.996460 
z"/>
<path fill="#793F2A" opacity="1.000000" stroke="none" 
	d="
M238.017822,81.755226 
	C237.747299,81.771172 237.492935,81.540359 237.111481,81.082642 
	C237.334259,81.073318 237.684113,81.290894 238.017822,81.755226 
z"/>
<path fill="#5D5F68" opacity="1.000000" stroke="none" 
	d="
M114.944778,212.356079 
	C114.718399,212.031342 114.855843,211.813675 115.359444,211.706863 
	C115.575706,212.028244 115.436707,212.243393 114.944778,212.356079 
z"/>
<path fill="#30AD40" opacity="1.000000" stroke="none" 
	d="
M210.472748,35.456459 
	C210.518051,35.431149 210.427460,35.481770 210.472748,35.456459 
z"/>
<path fill="#30AD40" opacity="1.000000" stroke="none" 
	d="
M208.527252,34.543541 
	C208.481949,34.568851 208.572540,34.518230 208.527252,34.543541 
z"/>
<path fill="#30AD40" opacity="1.000000" stroke="none" 
	d="
M206.527252,33.543541 
	C206.481949,33.568851 206.572540,33.518230 206.527252,33.543541 
z"/>
<path fill="#F3EDEA" opacity="1.000000" stroke="none" 
	d="
M199.138184,105.830841 
	C200.592514,104.763145 201.992340,103.817085 203.528183,103.466019 
	C203.939499,103.372009 205.420135,105.254089 205.250641,105.944328 
	C204.985947,107.022232 203.532028,108.749222 202.937927,108.615829 
	C201.557159,108.305832 200.389008,107.048866 199.138184,105.830841 
z"/>
<path fill="#F4EFEC" opacity="1.000000" stroke="none" 
	d="
M223.942261,94.191833 
	C222.555008,93.183594 221.540268,92.134247 220.525513,91.084885 
	C221.457077,90.283287 222.336502,88.928734 223.334778,88.834610 
	C224.346069,88.739258 225.474854,89.890076 226.552155,90.495071 
	C225.806366,91.713623 225.060577,92.932175 223.942261,94.191833 
z"/>
<path fill="#F7F2F0" opacity="1.000000" stroke="none" 
	d="
M182.386032,117.896164 
	C182.857880,119.441246 183.370163,120.947487 182.973801,122.155617 
	C182.804047,122.673019 180.610840,122.962837 179.585449,122.617813 
	C178.837402,122.366119 178.495895,120.906273 177.973160,119.985016 
	C179.334930,119.235535 180.696686,118.486053 182.386032,117.896164 
z"/>
<path fill="#30AC40" opacity="1.000000" stroke="none" 
	d="
M233.853973,223.028259 
	C234.274139,222.397568 234.710144,222.029022 235.146149,221.660492 
	C235.324173,222.045105 235.502182,222.429733 235.680206,222.814362 
	C235.076736,222.973038 234.473267,223.131729 233.853973,223.028259 
z"/>
<path fill="#30AC40" opacity="1.000000" stroke="none" 
	d="
M228.491699,223.486969 
	C228.514023,223.478012 228.469391,223.495941 228.491699,223.486969 
z"/>
<path fill="#000000" opacity="1.000000" stroke="none" 
	d="
M178.946625,258.116516 
	C177.814636,258.299316 176.684937,258.524353 175.546371,258.586273 
	C175.453323,258.591309 175.299774,257.484070 175.174347,256.893677 
	C176.313187,256.698517 177.452011,256.503326 178.442291,256.644409 
	C177.723343,257.097504 177.152969,257.214355 175.171524,257.620300 
	C177.379501,257.910522 178.163071,258.013519 178.946625,258.116516 
z"/>
<path fill="#4EA64E" opacity="1.000000" stroke="none" 
	d="
M178.949829,257.828308 
	C178.163071,258.013519 177.379501,257.910522 175.171524,257.620300 
	C177.152969,257.214355 177.723343,257.097504 178.610596,256.972473 
	C178.936005,257.156250 178.944534,257.348206 178.949829,257.828308 
z"/>
<path fill="#000000" opacity="1.000000" stroke="none" 
	d="
M242.769623,199.019775 
	C242.147903,197.624039 241.750473,196.279953 241.811432,194.956985 
	C241.822266,194.721573 243.800705,194.250610 244.760925,194.441086 
	C249.133865,195.308578 250.355408,197.522293 248.715652,201.738220 
	C246.849808,200.846558 245.000076,199.962585 242.769623,199.019775 
z"/>
</svg>