<?xml version="1.0" standalone="no"?>
<!DOCTYPE svg PUBLIC "-//W3C//DTD SVG 20010904//EN"
 "http://www.w3.org/TR/2001/REC-SVG-20010904/DTD/svg10.dtd">
<svg version="1.0" xmlns="http://www.w3.org/2000/svg"
 width="300.000000pt" height="300.000000pt" viewBox="0 0 300.000000 300.000000"
 preserveAspectRatio="xMidYMid meet">

<g transform="translate(0.000000,300.000000) scale(0.100000,-0.100000)"
fill="#000000" stroke="none">
<path d="M2160 2168 c-33 -16 -60 -33 -60 -39 0 -5 -5 -9 -10 -9 -6 0 -16 -5
-23 -10 -7 -6 -39 -31 -72 -58 -34 -26 -67 -53 -75 -60 -8 -6 -42 -33 -75 -60
-34 -26 -67 -53 -75 -60 -8 -6 -42 -33 -75 -60 -34 -26 -70 -56 -82 -67 l-22
-20 45 -60 c54 -72 53 -77 -16 -220 -66 -136 -152 -246 -322 -411 -113 -110
-127 -125 -64 -74 119 98 247 227 316 321 70 95 93 135 130 234 l26 70 164 88
c409 220 498 279 525 351 17 43 16 60 -7 119 -24 62 -127 73 -228 25z m94 -60
c8 -14 7 -21 -6 -34 -30 -30 -75 9 -48 42 16 18 39 15 54 -8z m-208 -143 c8
-20 -13 -45 -38 -45 -21 0 -33 22 -24 45 7 20 55 19 62 0z m-216 -144 c7 -15
6 -23 -6 -35 -19 -20 -29 -20 -48 0 -19 19 -20 26 -4 42 18 18 46 14 58 -7z"/>
</g>
</svg>
