<?xml version="1.0"?>
<svg width="640" height="480" xmlns="http://www.w3.org/2000/svg" xmlns:svg="http://www.w3.org/2000/svg" xmlns:xlink="http://www.w3.org/1999/xlink">
 <!-- Created with SVG-edit - https://github.com/SVG-Edit/svgedit-->
 <defs>
  <symbol height="1em" id="svg_17" viewBox="0 0 256 256" width="1em" xmlns="http://www.w3.org/2000/svg">
   <path d="m128.9,2.39a124.7,124.7 0 0 0 -124.7,124.7a124.7,124.7 0 0 0 124.7,124.7a124.7,124.7 0 0 0 124.69,-123.11l0.01,-1.59l-0.01,-1.58a124.7,124.7 0 0 0 -124.69,-123.12z" fill="#FFF"/>
   <g fill="#AFDAD2" stroke="#FFF" stroke-width="0.25">
    <path d="m100.43,73.98a4.8,4.8 0 1 0 0,-9.61a4.8,4.8 0 0 0 0,9.61zm-10.35,7.24a4.65,4.65 0 1 0 0,-9.3a4.65,4.65 0 0 0 0,9.3zm-9.94,4.61a4.38,4.38 0 1 0 0,-8.76a4.38,4.38 0 0 0 0,8.76zm29.01,-17.57a4.95,4.95 0 1 0 0,-9.89a4.95,4.95 0 0 0 0,9.89zm-36.48,7.18a3.32,3.32 0 1 0 0,-6.64a3.32,3.32 0 0 0 0,6.64zm-8.2,18.21a3.95,3.95 0 1 0 0,-7.9a3.95,3.95 0 0 0 0,7.9zm5.02,-31.26a4.76,4.76 0 1 0 0,-9.52a4.76,4.76 0 0 0 0,9.52zm12.83,8.9a3.68,3.68 0 1 0 0,-7.36a3.68,3.68 0 0 0 0,7.36zm63.45,-10.98a4.3,4.3 0 1 0 0,-8.61a4.3,4.3 0 0 0 0,8.61zm-90.24,22.81a2.61,2.61 0 1 0 0,-5.22a2.61,2.61 0 0 0 0,5.22zm8.67,-2.46a3.1,3.1 0 1 0 0,-6.19a3.1,3.1 0 0 0 0,6.19zm-15.8,-9.81a4.1,4.1 0 1 0 0,-8.2a4.1,4.1 0 0 0 0,8.2zm16.14,-1.8a2.14,2.14 0 1 0 0,-4.28a2.14,2.14 0 0 0 0,4.28zm28.63,-3.34a3.99,3.99 0 1 0 0,-7.98a3.99,3.99 0 0 0 0,7.98zm30.33,2.31a3.45,3.45 0 1 0 0,-6.89a3.45,3.45 0 0 0 0,6.89zm6.31,-21.49a2.25,2.25 0 1 0 0,-4.51a2.25,2.25 0 0 0 0,4.51zm7.33,12.98a3.77,3.77 0 1 0 0,-7.54a3.77,3.77 0 0 0 0,7.54zm-37.64,-2.2a3.87,3.87 0 1 0 0,-7.74a3.87,3.87 0 0 0 0,7.74zm-48.5,37.21a3.14,3.14 0 1 0 0,-6.28a3.14,3.14 0 0 0 0,6.28z"/>
    <path d="m154.48,61.13a4.79,4.79 0 1 0 0,-9.57a4.79,4.79 0 0 0 0,9.57zm-46.17,-3.24a4.39,4.39 0 1 0 0,-8.78a4.39,4.39 0 0 0 0,8.78zm-51.03,3.54a4.07,4.07 0 1 0 0,-8.14a4.07,4.07 0 0 0 0,8.14zm22.66,-10.51a4.71,4.71 0 1 0 0,-9.42a4.71,4.71 0 0 0 0,9.42zm88.33,6.34a2.91,2.91 0 1 0 0,-5.82a2.91,2.91 0 0 0 0,5.82zm-101.29,-11.88a3.7,3.7 0 1 0 0,-7.4a3.7,3.7 0 0 0 0,7.4zm16.68,16.57a3.15,3.15 0 1 0 0,-6.3a3.15,3.15 0 0 0 0,6.3zm7.54,-6.83a3.2,3.2 0 1 0 0,-6.4a3.2,3.2 0 0 0 0,6.4zm-49.4,8.12a3.22,3.22 0 1 0 0,-6.44a3.22,3.22 0 0 0 0,6.44zm8.87,-12.52a2.95,2.95 0 1 0 0,-5.91a2.95,2.95 0 0 0 0,5.91zm68.15,9.17a2.48,2.48 0 1 0 0,-4.95a2.48,2.48 0 0 0 0,4.95zm-79.29,19.65a4.09,4.09 0 1 0 0,-8.18a4.09,4.09 0 0 0 0,8.18zm-9.14,-6.9a3.08,3.08 0 1 0 0,-6.15a3.08,3.08 0 0 0 0,6.15zm96.88,-13.47a3.1,3.1 0 1 0 0,-6.19a3.1,3.1 0 0 0 0,6.19zm-70.36,16.07a4.77,4.77 0 1 0 0,-9.54a4.77,4.77 0 0 0 0,9.54z"/>
    <path d="m162.01,53.55a4.78,4.78 0 1 0 0,-9.56a4.78,4.78 0 0 0 0,9.56zm-119.94,45.07a2.78,2.78 0 1 0 0,-5.56a2.78,2.78 0 0 0 0,5.56zm69.34,-54.15a3.82,3.82 0 1 0 0,-7.63a3.82,3.82 0 0 0 0,7.63zm79.29,5.26a3.9,3.9 0 1 0 0,-7.8a3.9,3.9 0 0 0 0,7.8zm-51.86,-1.99a3.1,3.1 0 1 0 0,-6.21a3.1,3.1 0 0 0 0,6.21zm-67.68,40.95a4.05,4.05 0 1 0 0,-8.09a4.05,4.05 0 0 0 0,8.09zm78.21,-39.61a3.88,3.88 0 1 0 0,-7.75a3.88,3.88 0 0 0 0,7.75zm27.43,3.77a3.21,3.21 0 1 0 0,-6.42a3.21,3.21 0 0 0 0,6.42zm30.32,6.96a2.9,2.9 0 1 0 0,-5.79a2.9,2.9 0 0 0 0,5.79zm-108.32,-21.27a2.5,2.5 0 1 0 0,-4.99a2.5,2.5 0 0 0 0,4.99zm22.69,-6.84a3.65,3.65 0 1 0 0,-7.31a3.65,3.65 0 0 0 0,7.31zm84.98,19.57a4.81,4.81 0 1 0 0,-9.62a4.81,4.81 0 0 0 0,9.62zm-90.5,1.97a4.55,4.55 0 1 0 0,-9.09a4.55,4.55 0 0 0 0,9.09zm16.83,-17.04a4.54,4.54 0 1 0 0,-9.07a4.54,4.54 0 0 0 0,9.07zm39.32,5.52a4.7,4.7 0 1 0 0,-9.39a4.7,4.7 0 0 0 0,9.39zm48.65,29.55a4.45,4.45 0 1 0 0,-8.9a4.45,4.45 0 0 0 0,8.9zm-100.31,-53.86a2.54,2.54 0 1 0 0,-5.08a2.54,2.54 0 0 0 0,5.08z"/>
    <path d="m161.02,44.37a4.27,4.27 0 1 0 0,-8.53a4.27,4.27 0 0 0 0,8.53zm-5.71,-8.19a3.44,3.44 0 1 0 0,-6.89a3.44,3.44 0 0 0 0,6.89zm-17.3,-7.5a4.42,4.42 0 1 0 0,-8.84a4.42,4.42 0 0 0 0,8.84zm-48.73,18.02a4.95,4.95 0 1 0 0,-9.91a4.95,4.95 0 0 0 0,9.91zm-30.55,-7.3a2.7,2.7 0 1 0 0,-5.39a2.7,2.7 0 0 0 0,5.39zm12.82,-1.81a3.5,3.5 0 1 0 0,-6.99a3.5,3.5 0 0 0 0,6.99zm117.47,21.19a4.31,4.31 0 1 0 0,-8.62a4.31,4.31 0 0 0 0,8.62zm-47.28,-22.72a2.39,2.39 0 1 0 0,-4.79a2.39,2.39 0 0 0 0,4.79zm-50.82,0.48a4.54,4.54 0 1 0 0,-9.08a4.54,4.54 0 0 0 0,9.08zm-66.59,55.64a3.95,3.95 0 1 0 0,-7.89a3.95,3.95 0 0 0 0,7.89zm10.51,1.36a4.58,4.58 0 1 0 0,-9.17a4.58,4.58 0 0 0 0,9.17zm37.05,-40.42a4.41,4.41 0 1 0 0,-8.82a4.41,4.41 0 0 0 0,8.82zm-46.27,29.24a3.42,3.42 0 1 0 0,-6.84a3.42,3.42 0 0 0 0,6.84zm137.89,-49.65a3.74,3.74 0 1 0 0,-7.48a3.74,3.74 0 0 0 0,7.48zm-104.18,15.72a3.41,3.41 0 1 0 0,-6.81a3.41,3.41 0 0 0 0,6.81z"/>
    <path d="m42.83,89.44a4.78,4.78 0 1 0 0,-9.55a4.78,4.78 0 0 0 0,9.55zm155.25,-32.5a4.68,4.68 0 1 0 0,-9.36a4.68,4.68 0 0 0 0,9.36zm16.88,-0.55a3.22,3.22 0 1 0 0,-6.44a3.22,3.22 0 0 0 0,6.44zm-111.27,-7.97a3.58,3.58 0 1 0 0,-7.17a3.58,3.58 0 0 0 0,7.17zm78.69,-4.03a3,3 0 1 0 0,-6.01a3,3 0 0 0 0,6.01zm-1.29,-7.52a4.9,4.9 0 1 0 0,-9.8a4.9,4.9 0 0 0 0,9.8zm-60.37,8.34a4.38,4.38 0 1 0 0,-8.75a4.38,4.38 0 0 0 0,8.75zm92.52,21.17a3.76,3.76 0 1 0 0,-7.52a3.76,3.76 0 0 0 0,7.52zm-179.3,33.91a2.2,2.2 0 1 0 0,-4.41a2.2,2.2 0 0 0 0,4.41zm46.29,-61.08a4.11,4.11 0 1 0 0,-8.23a4.11,4.11 0 0 0 0,8.23zm30.02,-6.71a2.94,2.94 0 1 0 0,-5.88a2.94,2.94 0 0 0 0,5.88zm85.26,9.05a3.7,3.7 0 1 0 0,-7.4a3.7,3.7 0 0 0 0,7.4zm-93.47,-14.98a4.6,4.6 0 1 0 0,-9.19a4.6,4.6 0 0 0 0,9.19z"/>
    <path d="m174.15,30.96a4.25,4.25 0 1 0 0,-8.5a4.25,4.25 0 0 0 0,8.5zm-92.82,-4.53a3.41,3.41 0 1 0 0,-6.81a3.41,3.41 0 0 0 0,6.81zm8.17,-2.64a3.76,3.76 0 1 0 0,-7.51a3.76,3.76 0 0 0 0,7.51zm57.9,-4.7a4.41,4.41 0 1 0 0,-8.82a4.41,4.41 0 0 0 0,8.82zm-17.71,0.93a3.43,3.43 0 1 0 0,-6.86a3.43,3.43 0 0 0 0,6.86zm26.51,4.19a2.62,2.62 0 1 0 0,-5.25a2.62,2.62 0 0 0 0,5.25z"/>
    <path d="m147.44,28.23a4.86,4.86 0 1 0 0,-9.73a4.86,4.86 0 0 0 0,9.73zm19.31,-4.72a3.36,3.36 0 1 0 0,-6.72a3.36,3.36 0 0 0 0,6.72zm-150.82,81.99a4.22,4.22 0 1 0 0,-8.44a4.22,4.22 0 0 0 0,8.44zm95.79,-82.28a2.27,2.27 0 1 0 0,-4.54a2.27,2.27 0 0 0 0,4.54zm78.09,10.41a2.74,2.74 0 1 0 0,-5.49a2.74,2.74 0 0 0 0,5.49zm-51.27,-13.72a3.97,3.97 0 1 0 0,-7.94a3.97,3.97 0 0 0 0,7.94zm-90.59,60.24a4.57,4.57 0 1 0 0,-9.14a4.57,4.57 0 0 0 0,9.14z"/>
   </g>
   <path d="m174.34,58.56l-4.71,-0.11l-4.72,0.11l-4.72,0.32l-4.71,0.55l-4.71,0.75l-4.71,0.95l-4.7,1.14l-4.69,1.32l-4.68,1.47l-4.68,1.61l-4.67,1.75l-4.66,1.84l-4.65,1.94l-4.64,2l-4.64,2.06l-4.64,2.09l-9.24,4.2l-4.62,2.08l-4.61,2.05l-4.6,2l-4.6,1.94l-4.6,1.88l-4.59,1.8l-4.59,1.72l-4.59,1.63l-4.58,1.54l-4.58,1.44l-4.59,1.35l-4.58,1.25l-4.58,1.16l-4.58,1.07l-4.58,0.97l-4.58,0.89l-4.59,0.8l-5.02,0.8l-0.23,1.53a122.37,122.37 0 0 0 -0.49,31.24l0.32,2.84l6.64,-2.94l4.63,-2.09l9.24,-4.2l4.62,-2.08l4.61,-2.04l4.6,-1.99l4.59,-1.91l4.59,-1.82l4.58,-1.71l4.57,-1.58l4.57,-1.44l4.55,-1.27l4.55,-1.11l4.54,-0.92l4.54,-0.72l4.53,-0.52l4.52,-0.32l4.53,-0.1l4.52,0.11l4.52,0.32l4.53,0.52l4.53,0.73l4.53,0.92l4.54,1.11l4.55,1.27l4.56,1.44l4.56,1.58l4.57,1.71l4.58,1.81l4.59,1.91l4.6,1.99l4.6,2.04l4.6,2.07l9.24,4.2l4.62,2.08l4.63,2.06l4.64,2.02l4.64,1.96l4.64,1.89l4.65,1.83l4.65,1.74l4.65,1.65l4.66,1.57l4.66,1.47l4.65,1.37l4.66,1.27l4.66,1.18l4.66,1.08l6.55,1.4l0.55,-1.87a122.38,122.38 0 0 0 4.86,-32.65l0.01,-1.54l-0.01,-1.55l-0.03,-1.67a122.4,122.4 0 0 0 -9.27,-43.63l-0.42,-1.01l-0.76,-1.74l-4.76,-2.15l-4.63,-2.05l-4.64,-2l-4.65,-1.93l-4.65,-1.85l-4.66,-1.74l-4.67,-1.61l-4.67,-1.48l-4.69,-1.31l-4.69,-1.14l-4.7,-0.96l-4.7,-0.75l-4.71,-0.55l-4.72,-0.33zm-4.76,1.99l4.62,0.1l4.62,0.33l4.62,0.53l4.62,0.74l4.62,0.94l4.62,1.12l4.62,1.29l4.62,1.46l4.62,1.6l4.62,1.72l4.62,1.83l4.62,1.93l4.62,1.99l4.62,2.05l4.02,1.81a120.28,120.28 0 0 1 9.96,44.84l0.03,1.64l0.01,1.53l-0.01,1.53a120.28,120.28 0 0 1 -4.78,32.08l-4.61,-0.98l-4.62,-1.07l-4.62,-1.17l-4.62,-1.26l-4.62,-1.37l-4.62,-1.45l-4.62,-1.55l-4.62,-1.64l-4.62,-1.73l-4.62,-1.82l-4.62,-1.88l-4.62,-1.96l-4.62,-2.01l-4.62,-2.05l-4.62,-2.08l-9.24,-4.2l-4.62,-2.08l-4.62,-2.05l-4.62,-1.99l-4.62,-1.93l-4.62,-1.83l-4.62,-1.72l-4.62,-1.6l-4.62,-1.45l-4.62,-1.3l-4.62,-1.12l-4.62,-0.94l-4.62,-0.74l-4.62,-0.53l-4.62,-0.33l-4.62,-0.1l-4.62,0.1l-4.62,0.33l-4.62,0.53l-4.62,0.74l-4.62,0.94l-4.62,1.12l-4.62,1.3l-4.62,1.45l-4.62,1.6l-4.62,1.72l-4.62,1.83l-4.62,1.93l-4.62,1.99l-4.62,2.05l-4.62,2.08l-9.24,4.2l-4.62,2.08l-4.03,1.79a120.28,120.28 0 0 1 0.49,-30.71l3.54,-0.56l4.62,-0.81l4.62,-0.9l4.62,-0.98l4.62,-1.07l4.62,-1.17l4.62,-1.26l4.62,-1.36l4.62,-1.46l4.62,-1.55l4.62,-1.64l4.62,-1.73l4.62,-1.82l4.62,-1.88l4.62,-1.96l4.62,-2.01l4.62,-2.05l4.62,-2.08l9.24,-4.2l4.62,-2.08l4.62,-2.05l4.62,-1.99l4.62,-1.93l4.62,-1.83l4.62,-1.72l4.62,-1.6l4.62,-1.46l4.62,-1.29l4.62,-1.12l4.62,-0.94l4.62,-0.74l4.62,-0.53l4.62,-0.33l4.62,-0.1z" fill="#FFF"/>
   <path d="m169.58,60.05l4.64,0.1l4.64,0.33l4.64,0.54l4.65,0.74l4.64,0.94l4.63,1.13l4.64,1.3l4.63,1.45l4.64,1.61l4.63,1.73l4.63,1.83l4.62,1.93l4.63,1.99l4.62,2.05l4.2,1.89a120.78,120.78 0 0 1 10.09,45.83l0.02,1.03l0.01,1.53l-0.01,1.53a120.78,120.78 0 0 1 -4.94,32.66l-5.07,-1.07l-4.63,-1.08l-4.63,-1.17l-4.62,-1.26l-4.63,-1.37l-4.63,-1.46l-4.63,-1.55l-4.63,-1.65l-4.62,-1.73l-4.63,-1.81l-4.63,-1.89l-4.62,-1.96l-4.63,-2.01l-4.62,-2.05l-4.62,-2.09l-9.24,-4.19l-4.62,-2.08l-4.61,-2.05l-4.61,-1.99l-4.62,-1.92l-4.61,-1.83l-4.61,-1.72l-4.61,-1.6l-4.61,-1.45l-4.6,-1.29l-4.6,-1.11l-4.6,-0.94l-4.6,-0.73l-4.6,-0.54l-4.6,-0.32l-4.59,-0.1l-4.6,0.1l-4.6,0.32l-4.59,0.54l-4.6,0.73l-4.6,0.94l-4.61,1.11l-4.6,1.29l-4.61,1.45l-4.6,1.6l-4.61,1.72l-4.61,1.83l-4.61,1.92l-4.62,1.99l-4.62,2.04l-4.62,2.09l-9.24,4.19l-4.62,2.09l-4.65,2.06a120.78,120.78 0 0 1 0.47,-31.88l3.89,-0.62l4.61,-0.8l4.61,-0.9l4.61,-0.98l4.61,-1.07l4.61,-1.16l4.62,-1.26l4.61,-1.36l4.61,-1.45l4.61,-1.55l4.61,-1.64l4.61,-1.73l4.62,-1.81l4.61,-1.88l4.62,-1.96l4.61,-2l4.62,-2.05l4.62,-2.09l9.24,-4.2l4.62,-2.08l4.63,-2.05l4.63,-1.99l4.62,-1.93l4.63,-1.84l4.63,-1.72l4.63,-1.61l4.63,-1.45l4.64,-1.3l4.64,-1.13l4.64,-0.94l4.64,-0.74l4.64,-0.54l4.64,-0.33l4.65,-0.1z" fill="#7DB0BC" stroke="#FFF"/>
   <path d="m95.66,115.98l4.62,0.11l4.62,0.33l4.62,0.53l4.62,0.74l4.62,0.94l4.62,1.12l4.62,1.3l4.62,1.45l4.62,1.6l4.62,1.72l4.62,1.83l4.62,1.93l4.62,1.99l4.62,2.05l4.62,2.08l4.62,2.1l4.62,2.1l4.62,2.08l4.62,2.05l4.62,2.01l4.62,1.96l4.62,1.88l4.62,1.82l4.62,1.73l4.62,1.64l4.62,1.55l4.62,1.46l4.62,1.36l4.62,1.26l4.62,1.17l4.62,1.07l3.95,0.84a120.28,120.28 0 0 1 -68.8,75.34a120.28,120.28 0 0 1 -157.16,-65.09a120.28,120.28 0 0 1 -8.13,-30.38l3.76,-1.67l4.62,-2.08l4.62,-2.1l4.62,-2.1l4.62,-2.08l4.62,-2.05l4.62,-1.99l4.62,-1.93l4.62,-1.83l4.62,-1.72l4.62,-1.6l4.62,-1.46l4.62,-1.29l4.62,-1.12l4.62,-0.94l4.62,-0.74l4.62,-0.53l4.62,-0.33l4.62,-0.11z" fill="#5C7DA2"/>
   <path d="m104.9,147.13l0,15.49l27.72,0l0,21.4l27.72,0l0,14.63l27.72,0l0,6.18l27.72,0l0,5.4a120.28,120.28 0 0 1 -133.81,28.89a120.28,120.28 0 0 1 -60.23,-54.77l0,-14.43l27.72,0l0,-19.31l27.72,0l0,-3.48l27.72,0z" fill="#444876"/>
   <path d="m105.84,146.18l0,15.5l27.72,0l0,21.39l27.72,0l0,14.64l27.72,0l0,6.17l27.72,0l0,5.33a133.74,133.74 0 0 1 -1.89,2.02l0,-5.46l-25.83,0l0,25.89c-0.62,0.37 -1.26,0.73 -1.89,1.09l0,-33.15l-25.83,0l0,43.98c-0.63,0.18 -1.26,0.36 -1.89,0.53l0,-59.15l-25.83,0l0,63.19c-0.63,0.03 -1.26,0.05 -1.89,0.07l0,-84.65l-25.83,0l0,82.65c-0.63,-0.12 -1.26,-0.24 -1.89,-0.37l0,-97.78l-25.83,0l0,1.59l0,0l0,87.79a116.51,116.51 0 0 1 -1.89,-0.88l0,-85.01l-25.83,0l0,17.41l0,0l0,50.93a120.27,120.27 0 0 1 -1.89,-1.63l0,-47.41l-25.83,0l0,15.24c-0.65,-1.18 -1.28,-2.37 -1.89,-3.57l0,-13.56l27.72,0l0,-19.31l27.72,0l0,-3.48l29.61,0z" fill="#FFF"/>
   <path d="m128,0a128,128 0 0 1 127.98,126.37l0.01,1.63l-0.01,1.62a128,128 0 0 1 -127.98,126.37a128,128 0 0 1 -128,-127.99a128,128 0 0 1 128,-128zm0,4.2a123.8,123.8 0 0 0 -123.8,123.8a123.8,123.8 0 0 0 123.8,123.79a123.8,123.8 0 0 0 123.78,-122.22l0.01,-1.57l-0.01,-1.58a123.8,123.8 0 0 0 -123.78,-122.22z" fill="#444876"/>
  </symbol>
 </defs>
 <g class="layer">
  <title>Layer 1</title>
  <rect fill="#7db0bc" height="28" id="svg_13" transform="matrix(0.935464 0 0 0.85906 141.551 109)" width="186.25" x="-151.04" y="-126.62"/>
  <use id="svg_18" transform="matrix(1.01893 0 0 1.0313 -6.27549 -21.169)" x="14.69" xlink:href="#svg_17" y="23.75"/>
  <text fill="#fcf7f7" font-family="Monospace" font-size="2" font-weight="bold" id="svg_19" lengthAdjust="spacing" stroke-width="0" text-anchor="middle" textLength="0" transform="matrix(1 0 0 1 0 0) matrix(15.4369 0 0 7.57811 -1350.32 -331.019)" word-spacing="0" x="93.76" xml:space="preserve" y="45.97">SEABORN</text>
 </g>
</svg>